<svg xmlns="http://www.w3.org/2000/svg" viewBox="0 0 565.62 311.04"><defs><style>.cls-1{font-size:46.2px;font-family:Poppins-BoldItalic, Poppins;font-weight:700;font-style:italic;}.cls-1,.cls-2{fill:#f25b00;}</style></defs><g id="Layer_2" data-name="Layer 2"><g id="Layer_1-2" data-name="Layer 1"><text class="cls-1" transform="translate(13.36 285.57) scale(1 0.91)">NETLINE CARGO LIMITED</text><path class="cls-2" d="M532.46,44,506.8,78.4a1.08,1.08,0,0,1-.88.45H433.47a45.42,45.42,0,0,0-26.28,7.94c-7.39,5.23-14.14,13.62-13.89,26.77,0,0-2.94,14.43,12.94,26.18a1.1,1.1,0,0,1-.65,2H354.67a1.08,1.08,0,0,1-1-.67c-2-5.06-14-37.78,4.65-64.94,20.23-29.52,45.38-33.9,98.42-33.9,43.85,0,67.87,0,74.87,0A1.1,1.1,0,0,1,532.46,44Z"/><path class="cls-2" d="M265,40.19H169.14A1.11,1.11,0,0,0,168,41.3v78.43a1.1,1.1,0,0,1-1.84.82l-84.92-76c-15.45-13.84-40-3.09-40.34,17.65L39,182.32a1.1,1.1,0,0,0,1.11,1.12H79.45a1.11,1.11,0,0,0,1.11-1.11V101.72a1.11,1.11,0,0,1,1.84-.83l87.51,78.29C185.39,193,210,182.05,210,161.28V82a1.11,1.11,0,0,1,1.11-1.11h8.75Z"/><path class="cls-2" d="M532.14,146.26H269.74a1.1,1.1,0,0,1-1.1-1.1V43.53L224.56,83.22v99.11a1.1,1.1,0,0,0,1.1,1.11H505.92a1.11,1.11,0,0,0,.89-.44L533,148A1.1,1.1,0,0,0,532.14,146.26Z"/><path d="M532.68,222.1c-141.08,5.35-289.51,5.81-431,5.21l-26.94-.24a76.16,76.16,0,0,1-28.07-4.87C18.8,211.84-.84,183.08,0,153.37c0-2.06.26-11.29.27-13.48C1.08,104.19,2,67.79,3.46,32.14c1.46,35.64,2.41,72.05,3.16,107.75.08,2.17.2,11.57.28,13.46.49,30.33,22.94,57.1,52.73,62.66a72.24,72.24,0,0,0,15.12,1.13c18.41-.28,93.43-.46,113.14-.54,113.26.27,231.9,1.11,344.79,5.5Z"/><path d="M33,5.41C173.48.06,321.27-.4,462.14.2L489,.45A81.49,81.49,0,0,1,505.9,2c30.09,5.71,54.66,32.37,57.72,62.8.85,6.48.25,15.37.2,21.91-.78,35.54-1.67,71.79-3.16,107.28-1.46-35.48-2.41-71.74-3.15-107.28-.19-6.22,0-15-1-21-3.34-23.47-20.4-44-42.78-51.73A67.4,67.4,0,0,0,489,10.37c-3.34.05-23,.2-26.83.25C321.2,11.23,173.57,10.75,33,5.41Z"/></g></g></svg>